<mxfile host="Electron" agent="Mozilla/5.0 (Windows NT 10.0; Win64; x64) AppleWebKit/537.36 (KHTML, like Gecko) draw.io/26.0.3 Chrome/130.0.6723.137 Electron/33.2.1 Safari/537.36" version="26.0.3">
  <diagram name="Page-1" id="AuT3mNPZFbH1xTGKMPyO">
    <mxGraphModel dx="4097" dy="2411" grid="1" gridSize="10" guides="1" tooltips="1" connect="1" arrows="1" fold="1" page="1" pageScale="1" pageWidth="850" pageHeight="1100" math="0" shadow="0">
      <root>
        <mxCell id="0" />
        <mxCell id="1" parent="0" />
        <mxCell id="mS-Zj38iRctALE42q6DI-45" value="" style="ellipse;whiteSpace=wrap;html=1;aspect=fixed;fontSize=10;fillColor=none;" parent="1" vertex="1">
          <mxGeometry x="1170" y="420" width="70" height="70" as="geometry" />
        </mxCell>
        <mxCell id="cmAPLgQ7rCV6VBMfsaR0-1" value="" style="rounded=1;whiteSpace=wrap;html=1;" parent="1" vertex="1">
          <mxGeometry x="80" y="960" width="360" height="120" as="geometry" />
        </mxCell>
        <mxCell id="cmAPLgQ7rCV6VBMfsaR0-2" value="J2" style="ellipse;whiteSpace=wrap;html=1;aspect=fixed;fontSize=10;" parent="1" vertex="1">
          <mxGeometry x="100" y="1010" width="30" height="30" as="geometry" />
        </mxCell>
        <mxCell id="cmAPLgQ7rCV6VBMfsaR0-3" value="J3" style="ellipse;whiteSpace=wrap;html=1;aspect=fixed;fontSize=10;" parent="1" vertex="1">
          <mxGeometry x="130" y="980" width="30" height="30" as="geometry" />
        </mxCell>
        <mxCell id="cmAPLgQ7rCV6VBMfsaR0-5" value="J1" style="ellipse;whiteSpace=wrap;html=1;aspect=fixed;fontSize=10;" parent="1" vertex="1">
          <mxGeometry x="160" y="1010" width="30" height="30" as="geometry" />
        </mxCell>
        <mxCell id="cmAPLgQ7rCV6VBMfsaR0-6" value="J4" style="ellipse;whiteSpace=wrap;html=1;aspect=fixed;fontSize=10;" parent="1" vertex="1">
          <mxGeometry x="135" y="1050" width="20" height="20" as="geometry" />
        </mxCell>
        <mxCell id="cmAPLgQ7rCV6VBMfsaR0-7" value="MEMORY POWER SUPPLY" style="text;html=1;align=right;verticalAlign=middle;whiteSpace=wrap;rounded=0;" parent="1" vertex="1">
          <mxGeometry x="230" y="960" width="180" height="20" as="geometry" />
        </mxCell>
        <mxCell id="cmAPLgQ7rCV6VBMfsaR0-8" value="" style="rounded=1;whiteSpace=wrap;html=1;" parent="1" vertex="1">
          <mxGeometry x="80" y="830" width="360" height="120" as="geometry" />
        </mxCell>
        <mxCell id="cmAPLgQ7rCV6VBMfsaR0-11" value="J4" style="ellipse;whiteSpace=wrap;html=1;aspect=fixed;fontSize=10;" parent="1" vertex="1">
          <mxGeometry x="245" y="900" width="30" height="30" as="geometry" />
        </mxCell>
        <mxCell id="cmAPLgQ7rCV6VBMfsaR0-13" value="I/O CONTROL" style="text;html=1;align=right;verticalAlign=middle;whiteSpace=wrap;rounded=0;" parent="1" vertex="1">
          <mxGeometry x="300" y="830" width="110" height="20" as="geometry" />
        </mxCell>
        <mxCell id="cmAPLgQ7rCV6VBMfsaR0-14" value="J1" style="rounded=1;whiteSpace=wrap;html=1;fontSize=10;" parent="1" vertex="1">
          <mxGeometry x="370" y="860" width="30" height="60" as="geometry" />
        </mxCell>
        <mxCell id="cmAPLgQ7rCV6VBMfsaR0-15" value="J3" style="rounded=1;whiteSpace=wrap;html=1;fontSize=10;" parent="1" vertex="1">
          <mxGeometry x="330" y="860" width="30" height="60" as="geometry" />
        </mxCell>
        <mxCell id="cmAPLgQ7rCV6VBMfsaR0-16" value="J7" style="rounded=1;whiteSpace=wrap;html=1;fontSize=10;" parent="1" vertex="1">
          <mxGeometry x="300" y="860" width="20" height="40" as="geometry" />
        </mxCell>
        <mxCell id="cmAPLgQ7rCV6VBMfsaR0-17" value="J2" style="rounded=1;whiteSpace=wrap;html=1;fontSize=10;" parent="1" vertex="1">
          <mxGeometry x="190" y="860" width="20" height="40" as="geometry" />
        </mxCell>
        <mxCell id="cmAPLgQ7rCV6VBMfsaR0-18" value="J6&lt;div&gt;&lt;font style=&quot;font-size: 6px;&quot;&gt;(Term)&lt;/font&gt;&lt;/div&gt;" style="rounded=1;whiteSpace=wrap;html=1;fontSize=10;" parent="1" vertex="1">
          <mxGeometry x="160" y="860" width="20" height="40" as="geometry" />
        </mxCell>
        <mxCell id="cmAPLgQ7rCV6VBMfsaR0-19" value="J5" style="rounded=1;whiteSpace=wrap;html=1;fontSize=10;" parent="1" vertex="1">
          <mxGeometry x="130" y="860" width="20" height="40" as="geometry" />
        </mxCell>
        <mxCell id="cmAPLgQ7rCV6VBMfsaR0-20" value="" style="rounded=1;whiteSpace=wrap;html=1;" parent="1" vertex="1">
          <mxGeometry x="80" y="580" width="360" height="240" as="geometry" />
        </mxCell>
        <mxCell id="cmAPLgQ7rCV6VBMfsaR0-23" value="" style="rounded=1;whiteSpace=wrap;html=1;" parent="1" vertex="1">
          <mxGeometry x="80" y="330" width="360" height="240" as="geometry" />
        </mxCell>
        <mxCell id="cmAPLgQ7rCV6VBMfsaR0-24" value="" style="rounded=1;whiteSpace=wrap;html=1;" parent="1" vertex="1">
          <mxGeometry x="80" y="80" width="360" height="240" as="geometry" />
        </mxCell>
        <mxCell id="cmAPLgQ7rCV6VBMfsaR0-25" value="CORE MEMORY" style="text;html=1;align=right;verticalAlign=middle;whiteSpace=wrap;rounded=0;" parent="1" vertex="1">
          <mxGeometry x="300" y="580" width="110" height="20" as="geometry" />
        </mxCell>
        <mxCell id="cmAPLgQ7rCV6VBMfsaR0-26" value="LOGIC POWER SUPPLY" style="text;html=1;align=right;verticalAlign=middle;whiteSpace=wrap;rounded=0;" parent="1" vertex="1">
          <mxGeometry x="250" y="330" width="160" height="20" as="geometry" />
        </mxCell>
        <mxCell id="cmAPLgQ7rCV6VBMfsaR0-27" value="CENTRAL PROCESSOR" style="text;html=1;align=right;verticalAlign=middle;whiteSpace=wrap;rounded=0;" parent="1" vertex="1">
          <mxGeometry x="230" y="80" width="180" height="20" as="geometry" />
        </mxCell>
        <mxCell id="cmAPLgQ7rCV6VBMfsaR0-28" value="J4" style="ellipse;whiteSpace=wrap;html=1;aspect=fixed;fontSize=10;" parent="1" vertex="1">
          <mxGeometry x="245" y="770" width="30" height="30" as="geometry" />
        </mxCell>
        <mxCell id="cmAPLgQ7rCV6VBMfsaR0-29" value="J3" style="ellipse;whiteSpace=wrap;html=1;aspect=fixed;fontSize=10;" parent="1" vertex="1">
          <mxGeometry x="245" y="730" width="30" height="30" as="geometry" />
        </mxCell>
        <mxCell id="cmAPLgQ7rCV6VBMfsaR0-30" value="J2" style="rounded=1;whiteSpace=wrap;html=1;fontSize=10;" parent="1" vertex="1">
          <mxGeometry x="245" y="660" width="30" height="60" as="geometry" />
        </mxCell>
        <mxCell id="cmAPLgQ7rCV6VBMfsaR0-31" value="J1" style="rounded=1;whiteSpace=wrap;html=1;fontSize=10;" parent="1" vertex="1">
          <mxGeometry x="245" y="590" width="30" height="60" as="geometry" />
        </mxCell>
        <mxCell id="cmAPLgQ7rCV6VBMfsaR0-32" value="J6" style="ellipse;whiteSpace=wrap;html=1;aspect=fixed;fontSize=10;" parent="1" vertex="1">
          <mxGeometry x="245" y="280" width="30" height="30" as="geometry" />
        </mxCell>
        <mxCell id="cmAPLgQ7rCV6VBMfsaR0-33" value="J5" style="rounded=1;whiteSpace=wrap;html=1;fontSize=10;" parent="1" vertex="1">
          <mxGeometry x="230" y="240" width="60" height="30" as="geometry" />
        </mxCell>
        <mxCell id="cmAPLgQ7rCV6VBMfsaR0-34" value="J4" style="rounded=1;whiteSpace=wrap;html=1;fontSize=10;" parent="1" vertex="1">
          <mxGeometry x="230" y="210" width="60" height="30" as="geometry" />
        </mxCell>
        <mxCell id="cmAPLgQ7rCV6VBMfsaR0-35" value="J3" style="rounded=1;whiteSpace=wrap;html=1;fontSize=10;" parent="1" vertex="1">
          <mxGeometry x="230" y="170" width="60" height="30" as="geometry" />
        </mxCell>
        <mxCell id="cmAPLgQ7rCV6VBMfsaR0-36" value="J2" style="rounded=1;whiteSpace=wrap;html=1;fontSize=10;" parent="1" vertex="1">
          <mxGeometry x="230" y="140" width="60" height="30" as="geometry" />
        </mxCell>
        <mxCell id="cmAPLgQ7rCV6VBMfsaR0-37" value="J1" style="rounded=1;whiteSpace=wrap;html=1;fontSize=10;" parent="1" vertex="1">
          <mxGeometry x="230" y="110" width="60" height="30" as="geometry" />
        </mxCell>
        <mxCell id="cmAPLgQ7rCV6VBMfsaR0-38" value="J1" style="rounded=1;whiteSpace=wrap;html=1;fontSize=10;" parent="1" vertex="1">
          <mxGeometry x="370" y="490" width="30" height="60" as="geometry" />
        </mxCell>
        <mxCell id="cmAPLgQ7rCV6VBMfsaR0-39" value="J2" style="rounded=1;whiteSpace=wrap;html=1;fontSize=10;" parent="1" vertex="1">
          <mxGeometry x="330" y="490" width="30" height="60" as="geometry" />
        </mxCell>
        <mxCell id="cmAPLgQ7rCV6VBMfsaR0-40" value="J3" style="rounded=1;whiteSpace=wrap;html=1;fontSize=10;" parent="1" vertex="1">
          <mxGeometry x="290" y="490" width="30" height="60" as="geometry" />
        </mxCell>
        <mxCell id="cmAPLgQ7rCV6VBMfsaR0-41" value="J4" style="ellipse;whiteSpace=wrap;html=1;aspect=fixed;fontSize=10;" parent="1" vertex="1">
          <mxGeometry x="230" y="505" width="30" height="30" as="geometry" />
        </mxCell>
        <mxCell id="cmAPLgQ7rCV6VBMfsaR0-42" value="J5" style="ellipse;whiteSpace=wrap;html=1;aspect=fixed;fontSize=10;" parent="1" vertex="1">
          <mxGeometry x="190" y="505" width="30" height="30" as="geometry" />
        </mxCell>
        <mxCell id="cmAPLgQ7rCV6VBMfsaR0-43" value="J6" style="ellipse;whiteSpace=wrap;html=1;aspect=fixed;fontSize=10;" parent="1" vertex="1">
          <mxGeometry x="150" y="505" width="30" height="30" as="geometry" />
        </mxCell>
        <mxCell id="cmAPLgQ7rCV6VBMfsaR0-44" value="J1: POWER -&amp;gt; To Core Memory J4&lt;div&gt;J2:&amp;nbsp;&lt;span style=&quot;background-color: transparent; color: light-dark(rgb(0, 0, 0), rgb(255, 255, 255));&quot;&gt;POWER -&amp;gt;&lt;/span&gt;&lt;span style=&quot;background-color: transparent; color: light-dark(rgb(0, 0, 0), rgb(255, 255, 255));&quot;&gt;&amp;nbsp;&lt;/span&gt;&lt;span style=&quot;background-color: transparent; color: light-dark(rgb(0, 0, 0), rgb(255, 255, 255));&quot;&gt;To Core Memory J3&lt;/span&gt;&lt;/div&gt;&lt;div&gt;J3:&amp;nbsp;&lt;span style=&quot;background-color: transparent; color: light-dark(rgb(0, 0, 0), rgb(255, 255, 255));&quot;&gt;POWER -&amp;gt;&lt;/span&gt;&lt;span style=&quot;background-color: transparent; color: light-dark(rgb(0, 0, 0), rgb(255, 255, 255));&quot;&gt;&amp;nbsp;&lt;/span&gt;&lt;span style=&quot;background-color: transparent; color: light-dark(rgb(0, 0, 0), rgb(255, 255, 255));&quot;&gt;To Logic Power Supply J4&lt;/span&gt;&lt;/div&gt;&lt;div style=&quot;&quot;&gt;J4:&amp;nbsp;&lt;span style=&quot;background-color: transparent; color: light-dark(rgb(0, 0, 0), rgb(255, 255, 255));&quot;&gt;POWER -&amp;gt;&lt;/span&gt;&lt;span style=&quot;background-color: transparent; color: light-dark(rgb(0, 0, 0), rgb(255, 255, 255));&quot;&gt;&amp;nbsp;&lt;/span&gt;&lt;span style=&quot;background-color: transparent; color: light-dark(rgb(0, 0, 0), rgb(255, 255, 255));&quot;&gt;A/C Input&lt;/span&gt;&lt;/div&gt;" style="text;html=1;align=left;verticalAlign=middle;whiteSpace=wrap;rounded=0;" parent="1" vertex="1">
          <mxGeometry x="450" y="960" width="260" height="120" as="geometry" />
        </mxCell>
        <mxCell id="cmAPLgQ7rCV6VBMfsaR0-45" value="J1: DATA -&amp;gt; From Central Processor J1&lt;div&gt;J2:&amp;nbsp;&lt;span style=&quot;background-color: transparent; color: light-dark(rgb(0, 0, 0), rgb(255, 255, 255));&quot;&gt;I/O -&amp;gt;&lt;/span&gt;&lt;span style=&quot;background-color: transparent; color: light-dark(rgb(0, 0, 0), rgb(255, 255, 255));&quot;&gt;&amp;nbsp;???&lt;/span&gt;&lt;/div&gt;&lt;div&gt;J3:&amp;nbsp;&lt;span style=&quot;background-color: transparent; color: light-dark(rgb(0, 0, 0), rgb(255, 255, 255));&quot;&gt;DATA -&amp;gt; To next I/O Control box???&lt;/span&gt;&lt;/div&gt;&lt;div style=&quot;&quot;&gt;J4:&amp;nbsp;&lt;span style=&quot;background-color: transparent; color: light-dark(rgb(0, 0, 0), rgb(255, 255, 255));&quot;&gt;POWER -&amp;gt;&lt;/span&gt;&lt;span style=&quot;background-color: transparent; color: light-dark(rgb(0, 0, 0), rgb(255, 255, 255));&quot;&gt;&amp;nbsp;&lt;/span&gt;&lt;span style=&quot;background-color: transparent; color: light-dark(rgb(0, 0, 0), rgb(255, 255, 255));&quot;&gt;From Logic Power Supply J5&lt;/span&gt;&lt;/div&gt;&lt;div style=&quot;&quot;&gt;J5:&amp;nbsp;&lt;span style=&quot;background-color: transparent; color: light-dark(rgb(0, 0, 0), rgb(255, 255, 255));&quot;&gt;I/O -&amp;gt;&lt;/span&gt;&lt;span style=&quot;background-color: transparent; color: light-dark(rgb(0, 0, 0), rgb(255, 255, 255));&quot;&gt;&amp;nbsp;???&lt;/span&gt;&lt;/div&gt;&lt;div style=&quot;&quot;&gt;J6: I/O -&amp;gt; Terminated&lt;/div&gt;&lt;div style=&quot;&quot;&gt;J7:&amp;nbsp;&lt;span style=&quot;background-color: transparent; color: light-dark(rgb(0, 0, 0), rgb(255, 255, 255));&quot;&gt;I/O -&amp;gt;&lt;/span&gt;&lt;span style=&quot;background-color: transparent; color: light-dark(rgb(0, 0, 0), rgb(255, 255, 255));&quot;&gt;&amp;nbsp;???&lt;/span&gt;&lt;/div&gt;" style="text;html=1;align=left;verticalAlign=middle;whiteSpace=wrap;rounded=0;" parent="1" vertex="1">
          <mxGeometry x="450" y="830" width="270" height="120" as="geometry" />
        </mxCell>
        <mxCell id="cmAPLgQ7rCV6VBMfsaR0-46" value="J1: DATA -&amp;gt; From&amp;nbsp;Central Processor J2&lt;div&gt;J2:&amp;nbsp;&lt;span style=&quot;background-color: transparent; color: light-dark(rgb(0, 0, 0), rgb(255, 255, 255));&quot;&gt;DATA -&amp;gt; Terminator or to next Core Memory Box&lt;/span&gt;&lt;/div&gt;&lt;div&gt;J3:&amp;nbsp;&lt;span style=&quot;background-color: transparent; color: light-dark(rgb(0, 0, 0), rgb(255, 255, 255));&quot;&gt;POWER -&amp;gt;&lt;/span&gt;&lt;span style=&quot;background-color: transparent; color: light-dark(rgb(0, 0, 0), rgb(255, 255, 255));&quot;&gt;&amp;nbsp;&lt;/span&gt;&lt;span style=&quot;background-color: transparent; color: light-dark(rgb(0, 0, 0), rgb(255, 255, 255));&quot;&gt;From Memory Power Supply J2&lt;/span&gt;&lt;/div&gt;&lt;div style=&quot;&quot;&gt;J4:&amp;nbsp;&lt;span style=&quot;background-color: transparent; color: light-dark(rgb(0, 0, 0), rgb(255, 255, 255));&quot;&gt;POWER -&amp;gt;&lt;/span&gt;&lt;span style=&quot;background-color: transparent; color: light-dark(rgb(0, 0, 0), rgb(255, 255, 255));&quot;&gt;&amp;nbsp;&lt;/span&gt;&lt;span style=&quot;background-color: transparent; color: light-dark(rgb(0, 0, 0), rgb(255, 255, 255));&quot;&gt;From Memory Power Supply J1&lt;/span&gt;&lt;/div&gt;" style="text;html=1;align=left;verticalAlign=middle;whiteSpace=wrap;rounded=0;" parent="1" vertex="1">
          <mxGeometry x="450" y="580" width="310" height="240" as="geometry" />
        </mxCell>
        <mxCell id="cmAPLgQ7rCV6VBMfsaR0-47" value="J1: DATA -&amp;gt; From Central Processor J5&lt;div&gt;J2:&amp;nbsp;&lt;span style=&quot;background-color: transparent; color: light-dark(rgb(0, 0, 0), rgb(255, 255, 255));&quot;&gt;DATA -&amp;gt;&amp;nbsp;&lt;/span&gt;&lt;span style=&quot;background-color: transparent; color: light-dark(rgb(0, 0, 0), rgb(255, 255, 255));&quot;&gt;From Central Processor J4&lt;/span&gt;&lt;/div&gt;&lt;div&gt;J3:&amp;nbsp;&lt;span style=&quot;background-color: transparent; color: light-dark(rgb(0, 0, 0), rgb(255, 255, 255));&quot;&gt;DATA -&amp;gt;&amp;nbsp;&lt;/span&gt;&lt;span style=&quot;background-color: transparent; color: light-dark(rgb(0, 0, 0), rgb(255, 255, 255));&quot;&gt;From Central Processor J3&lt;/span&gt;&lt;/div&gt;&lt;div style=&quot;&quot;&gt;J4:&amp;nbsp;&lt;span style=&quot;background-color: transparent; color: light-dark(rgb(0, 0, 0), rgb(255, 255, 255));&quot;&gt;POWER -&amp;gt;&lt;/span&gt;&lt;span style=&quot;background-color: transparent; color: light-dark(rgb(0, 0, 0), rgb(255, 255, 255));&quot;&gt;&amp;nbsp;&lt;/span&gt;&lt;span style=&quot;background-color: transparent; color: light-dark(rgb(0, 0, 0), rgb(255, 255, 255));&quot;&gt;From Memory Power Supply J3&lt;/span&gt;&lt;/div&gt;&lt;div style=&quot;&quot;&gt;J5:&amp;nbsp;&lt;span style=&quot;background-color: transparent; color: light-dark(rgb(0, 0, 0), rgb(255, 255, 255));&quot;&gt;POWER -&amp;gt;&lt;/span&gt;&lt;span style=&quot;background-color: transparent; color: light-dark(rgb(0, 0, 0), rgb(255, 255, 255));&quot;&gt;&amp;nbsp;&lt;/span&gt;&lt;span style=&quot;background-color: transparent; color: light-dark(rgb(0, 0, 0), rgb(255, 255, 255));&quot;&gt;To I/O Control J4&lt;/span&gt;&lt;/div&gt;&lt;div style=&quot;&quot;&gt;J6:&amp;nbsp;&lt;span style=&quot;background-color: transparent; color: light-dark(rgb(0, 0, 0), rgb(255, 255, 255));&quot;&gt;POWER -&amp;gt;&lt;/span&gt;&lt;span style=&quot;background-color: transparent; color: light-dark(rgb(0, 0, 0), rgb(255, 255, 255));&quot;&gt;&amp;nbsp;&lt;/span&gt;&lt;span style=&quot;background-color: transparent; color: light-dark(rgb(0, 0, 0), rgb(255, 255, 255));&quot;&gt;To Central Processor J6&lt;/span&gt;&lt;/div&gt;" style="text;html=1;align=left;verticalAlign=middle;whiteSpace=wrap;rounded=0;" parent="1" vertex="1">
          <mxGeometry x="450" y="330" width="310" height="240" as="geometry" />
        </mxCell>
        <mxCell id="cmAPLgQ7rCV6VBMfsaR0-48" value="J1: DATA -&amp;gt;&amp;nbsp;To I/O Control J1&lt;div&gt;J2:&amp;nbsp;&lt;span style=&quot;background-color: transparent; color: light-dark(rgb(0, 0, 0), rgb(255, 255, 255));&quot;&gt;DATA -&amp;gt;&lt;/span&gt;&lt;span style=&quot;background-color: transparent; color: light-dark(rgb(0, 0, 0), rgb(255, 255, 255));&quot;&gt;&amp;nbsp;To Core Memory J1&lt;/span&gt;&lt;/div&gt;&lt;div&gt;J3:&amp;nbsp;&lt;span style=&quot;background-color: transparent; color: light-dark(rgb(0, 0, 0), rgb(255, 255, 255));&quot;&gt;DATA -&amp;gt;&lt;/span&gt;&lt;span style=&quot;background-color: transparent; color: light-dark(rgb(0, 0, 0), rgb(255, 255, 255));&quot;&gt;&amp;nbsp;&lt;/span&gt;&lt;span style=&quot;background-color: transparent; color: light-dark(rgb(0, 0, 0), rgb(255, 255, 255));&quot;&gt;To Logic Power Supply J3&lt;/span&gt;&lt;/div&gt;&lt;div style=&quot;&quot;&gt;J4:&amp;nbsp;&lt;span style=&quot;background-color: transparent; color: light-dark(rgb(0, 0, 0), rgb(255, 255, 255));&quot;&gt;DATA -&amp;gt;&amp;nbsp;&lt;/span&gt;&lt;span style=&quot;background-color: transparent; color: light-dark(rgb(0, 0, 0), rgb(255, 255, 255));&quot;&gt;To Logic Power Supply J&lt;/span&gt;&lt;span style=&quot;background-color: transparent; color: light-dark(rgb(0, 0, 0), rgb(255, 255, 255));&quot;&gt;2&lt;/span&gt;&lt;/div&gt;&lt;div style=&quot;&quot;&gt;J5:&amp;nbsp;&lt;span style=&quot;background-color: transparent; color: light-dark(rgb(0, 0, 0), rgb(255, 255, 255));&quot;&gt;DATA -&amp;gt;&lt;/span&gt;&lt;span style=&quot;background-color: transparent; color: light-dark(rgb(0, 0, 0), rgb(255, 255, 255));&quot;&gt;&amp;nbsp;To Logic Power Supply J1&lt;/span&gt;&lt;/div&gt;&lt;div style=&quot;&quot;&gt;J6:&amp;nbsp;&lt;span style=&quot;background-color: transparent; color: light-dark(rgb(0, 0, 0), rgb(255, 255, 255));&quot;&gt;POWER -&amp;gt;&lt;/span&gt;&lt;span style=&quot;background-color: transparent; color: light-dark(rgb(0, 0, 0), rgb(255, 255, 255));&quot;&gt;&amp;nbsp;&lt;/span&gt;&lt;span style=&quot;background-color: transparent; color: light-dark(rgb(0, 0, 0), rgb(255, 255, 255));&quot;&gt;From Logic Power Supply J6&lt;/span&gt;&lt;/div&gt;" style="text;html=1;align=left;verticalAlign=middle;whiteSpace=wrap;rounded=0;" parent="1" vertex="1">
          <mxGeometry x="450" y="80" width="280" height="240" as="geometry" />
        </mxCell>
        <mxCell id="mS-Zj38iRctALE42q6DI-1" value="" style="ellipse;whiteSpace=wrap;html=1;aspect=fixed;fontSize=10;fillColor=none;" parent="1" vertex="1">
          <mxGeometry x="1085" y="265" width="70" height="70" as="geometry" />
        </mxCell>
        <mxCell id="mS-Zj38iRctALE42q6DI-8" value="" style="group;rotation=45;" parent="1" vertex="1" connectable="0">
          <mxGeometry x="1105" y="275" width="30" height="50" as="geometry" />
        </mxCell>
        <mxCell id="mS-Zj38iRctALE42q6DI-9" value="" style="ellipse;whiteSpace=wrap;html=1;aspect=fixed;rotation=45;" parent="mS-Zj38iRctALE42q6DI-8" vertex="1">
          <mxGeometry x="-4" y="34" width="10" height="10" as="geometry" />
        </mxCell>
        <mxCell id="mS-Zj38iRctALE42q6DI-10" value="" style="endArrow=none;dashed=1;html=1;dashPattern=1 3;strokeWidth=4;rounded=0;" parent="mS-Zj38iRctALE42q6DI-8" edge="1">
          <mxGeometry width="50" height="50" relative="1" as="geometry">
            <mxPoint x="-6" y="25" as="sourcePoint" />
            <mxPoint x="22" y="-3" as="targetPoint" />
          </mxGeometry>
        </mxCell>
        <mxCell id="mS-Zj38iRctALE42q6DI-11" value="" style="endArrow=none;dashed=1;html=1;dashPattern=1 3;strokeWidth=4;rounded=0;" parent="mS-Zj38iRctALE42q6DI-8" edge="1">
          <mxGeometry width="50" height="50" relative="1" as="geometry">
            <mxPoint x="15" y="46" as="sourcePoint" />
            <mxPoint x="43" y="18" as="targetPoint" />
          </mxGeometry>
        </mxCell>
        <mxCell id="mS-Zj38iRctALE42q6DI-12" value="" style="ellipse;whiteSpace=wrap;html=1;aspect=fixed;rotation=45;" parent="mS-Zj38iRctALE42q6DI-8" vertex="1">
          <mxGeometry x="10" y="20" width="10" height="10" as="geometry" />
        </mxCell>
        <mxCell id="mS-Zj38iRctALE42q6DI-13" value="" style="ellipse;whiteSpace=wrap;html=1;aspect=fixed;rotation=45;" parent="mS-Zj38iRctALE42q6DI-8" vertex="1">
          <mxGeometry x="24" y="6" width="10" height="10" as="geometry" />
        </mxCell>
        <mxCell id="mS-Zj38iRctALE42q6DI-14" value="" style="triangle;whiteSpace=wrap;html=1;rotation=90;" parent="1" vertex="1">
          <mxGeometry x="1115" y="255" width="10" height="10" as="geometry" />
        </mxCell>
        <mxCell id="mS-Zj38iRctALE42q6DI-15" value="J6" style="text;html=1;align=center;verticalAlign=middle;whiteSpace=wrap;rounded=0;" parent="1" vertex="1">
          <mxGeometry x="1105" y="335" width="30" height="30" as="geometry" />
        </mxCell>
        <mxCell id="mS-Zj38iRctALE42q6DI-16" value="" style="ellipse;whiteSpace=wrap;html=1;aspect=fixed;fontSize=10;fillColor=none;" parent="1" vertex="1">
          <mxGeometry x="1170" y="265" width="70" height="70" as="geometry" />
        </mxCell>
        <mxCell id="mS-Zj38iRctALE42q6DI-17" value="" style="group;rotation=-15;" parent="1" vertex="1" connectable="0">
          <mxGeometry x="1190" y="275" width="30" height="50" as="geometry" />
        </mxCell>
        <mxCell id="mS-Zj38iRctALE42q6DI-18" value="" style="ellipse;whiteSpace=wrap;html=1;aspect=fixed;rotation=-15;" parent="mS-Zj38iRctALE42q6DI-17" vertex="1">
          <mxGeometry x="15" y="39" width="10" height="10" as="geometry" />
        </mxCell>
        <mxCell id="mS-Zj38iRctALE42q6DI-19" value="" style="endArrow=none;dashed=1;html=1;dashPattern=1 3;strokeWidth=4;rounded=0;" parent="mS-Zj38iRctALE42q6DI-17" edge="1">
          <mxGeometry width="50" height="50" relative="1" as="geometry">
            <mxPoint x="4" y="43" as="sourcePoint" />
            <mxPoint x="-6" y="5" as="targetPoint" />
          </mxGeometry>
        </mxCell>
        <mxCell id="mS-Zj38iRctALE42q6DI-20" value="" style="endArrow=none;dashed=1;html=1;dashPattern=1 3;strokeWidth=4;rounded=0;" parent="mS-Zj38iRctALE42q6DI-17" edge="1">
          <mxGeometry width="50" height="50" relative="1" as="geometry">
            <mxPoint x="33" y="36" as="sourcePoint" />
            <mxPoint x="23" y="-3" as="targetPoint" />
          </mxGeometry>
        </mxCell>
        <mxCell id="mS-Zj38iRctALE42q6DI-21" value="" style="ellipse;whiteSpace=wrap;html=1;aspect=fixed;rotation=-15;" parent="mS-Zj38iRctALE42q6DI-17" vertex="1">
          <mxGeometry x="10" y="20" width="10" height="10" as="geometry" />
        </mxCell>
        <mxCell id="mS-Zj38iRctALE42q6DI-22" value="" style="ellipse;whiteSpace=wrap;html=1;aspect=fixed;rotation=-15;" parent="mS-Zj38iRctALE42q6DI-17" vertex="1">
          <mxGeometry x="5" y="1" width="10" height="10" as="geometry" />
        </mxCell>
        <mxCell id="mS-Zj38iRctALE42q6DI-23" value="" style="triangle;whiteSpace=wrap;html=1;rotation=90;" parent="1" vertex="1">
          <mxGeometry x="1200" y="255" width="10" height="10" as="geometry" />
        </mxCell>
        <mxCell id="mS-Zj38iRctALE42q6DI-24" value="J5" style="text;html=1;align=center;verticalAlign=middle;whiteSpace=wrap;rounded=0;" parent="1" vertex="1">
          <mxGeometry x="1190" y="335" width="30" height="30" as="geometry" />
        </mxCell>
        <mxCell id="mS-Zj38iRctALE42q6DI-25" value="" style="ellipse;whiteSpace=wrap;html=1;aspect=fixed;fontSize=10;fillColor=none;" parent="1" vertex="1">
          <mxGeometry x="1255" y="265" width="70" height="70" as="geometry" />
        </mxCell>
        <mxCell id="mS-Zj38iRctALE42q6DI-26" value="" style="group;rotation=15;" parent="1" vertex="1" connectable="0">
          <mxGeometry x="1275" y="275" width="30" height="50" as="geometry" />
        </mxCell>
        <mxCell id="mS-Zj38iRctALE42q6DI-27" value="" style="ellipse;whiteSpace=wrap;html=1;aspect=fixed;rotation=15;" parent="mS-Zj38iRctALE42q6DI-26" vertex="1">
          <mxGeometry x="5" y="39" width="10" height="10" as="geometry" />
        </mxCell>
        <mxCell id="mS-Zj38iRctALE42q6DI-28" value="" style="endArrow=none;dashed=1;html=1;dashPattern=1 3;strokeWidth=4;rounded=0;" parent="mS-Zj38iRctALE42q6DI-26" edge="1">
          <mxGeometry width="50" height="50" relative="1" as="geometry">
            <mxPoint x="-3" y="36" as="sourcePoint" />
            <mxPoint x="7" y="-3" as="targetPoint" />
          </mxGeometry>
        </mxCell>
        <mxCell id="mS-Zj38iRctALE42q6DI-29" value="" style="endArrow=none;dashed=1;html=1;dashPattern=1 3;strokeWidth=4;rounded=0;" parent="mS-Zj38iRctALE42q6DI-26" edge="1">
          <mxGeometry width="50" height="50" relative="1" as="geometry">
            <mxPoint x="26" y="43" as="sourcePoint" />
            <mxPoint x="36" y="5" as="targetPoint" />
          </mxGeometry>
        </mxCell>
        <mxCell id="mS-Zj38iRctALE42q6DI-30" value="" style="ellipse;whiteSpace=wrap;html=1;aspect=fixed;rotation=15;" parent="mS-Zj38iRctALE42q6DI-26" vertex="1">
          <mxGeometry x="10" y="20" width="10" height="10" as="geometry" />
        </mxCell>
        <mxCell id="mS-Zj38iRctALE42q6DI-31" value="" style="ellipse;whiteSpace=wrap;html=1;aspect=fixed;rotation=15;" parent="mS-Zj38iRctALE42q6DI-26" vertex="1">
          <mxGeometry x="15" y="1" width="10" height="10" as="geometry" />
        </mxCell>
        <mxCell id="mS-Zj38iRctALE42q6DI-32" value="" style="triangle;whiteSpace=wrap;html=1;rotation=90;" parent="1" vertex="1">
          <mxGeometry x="1285" y="255" width="10" height="10" as="geometry" />
        </mxCell>
        <mxCell id="mS-Zj38iRctALE42q6DI-33" value="J4" style="text;html=1;align=center;verticalAlign=middle;whiteSpace=wrap;rounded=0;" parent="1" vertex="1">
          <mxGeometry x="1275" y="335" width="30" height="30" as="geometry" />
        </mxCell>
        <mxCell id="mS-Zj38iRctALE42q6DI-34" value="LOGIC POWER SUPPLY" style="text;html=1;align=center;verticalAlign=middle;whiteSpace=wrap;rounded=0;" parent="1" vertex="1">
          <mxGeometry x="1085" y="220" width="240" height="20" as="geometry" />
        </mxCell>
        <mxCell id="mS-Zj38iRctALE42q6DI-35" value="" style="ellipse;whiteSpace=wrap;html=1;aspect=fixed;fontSize=10;fillColor=none;" parent="1" vertex="1">
          <mxGeometry x="1170" y="80" width="70" height="70" as="geometry" />
        </mxCell>
        <mxCell id="mS-Zj38iRctALE42q6DI-36" value="" style="group;rotation=45;" parent="1" vertex="1" connectable="0">
          <mxGeometry x="1190" y="90" width="30" height="50" as="geometry" />
        </mxCell>
        <mxCell id="mS-Zj38iRctALE42q6DI-37" value="" style="ellipse;whiteSpace=wrap;html=1;aspect=fixed;rotation=45;" parent="mS-Zj38iRctALE42q6DI-36" vertex="1">
          <mxGeometry x="-4" y="34" width="10" height="10" as="geometry" />
        </mxCell>
        <mxCell id="mS-Zj38iRctALE42q6DI-38" value="" style="endArrow=none;dashed=1;html=1;dashPattern=1 3;strokeWidth=4;rounded=0;" parent="mS-Zj38iRctALE42q6DI-36" edge="1">
          <mxGeometry width="50" height="50" relative="1" as="geometry">
            <mxPoint x="-6" y="25" as="sourcePoint" />
            <mxPoint x="22" y="-3" as="targetPoint" />
          </mxGeometry>
        </mxCell>
        <mxCell id="mS-Zj38iRctALE42q6DI-39" value="" style="endArrow=none;dashed=1;html=1;dashPattern=1 3;strokeWidth=4;rounded=0;" parent="mS-Zj38iRctALE42q6DI-36" edge="1">
          <mxGeometry width="50" height="50" relative="1" as="geometry">
            <mxPoint x="15" y="46" as="sourcePoint" />
            <mxPoint x="43" y="18" as="targetPoint" />
          </mxGeometry>
        </mxCell>
        <mxCell id="mS-Zj38iRctALE42q6DI-40" value="" style="ellipse;whiteSpace=wrap;html=1;aspect=fixed;rotation=45;" parent="mS-Zj38iRctALE42q6DI-36" vertex="1">
          <mxGeometry x="10" y="20" width="10" height="10" as="geometry" />
        </mxCell>
        <mxCell id="mS-Zj38iRctALE42q6DI-41" value="" style="ellipse;whiteSpace=wrap;html=1;aspect=fixed;rotation=45;" parent="mS-Zj38iRctALE42q6DI-36" vertex="1">
          <mxGeometry x="24" y="6" width="10" height="10" as="geometry" />
        </mxCell>
        <mxCell id="mS-Zj38iRctALE42q6DI-42" value="" style="triangle;whiteSpace=wrap;html=1;rotation=-90;" parent="1" vertex="1">
          <mxGeometry x="1200" y="150" width="10" height="10" as="geometry" />
        </mxCell>
        <mxCell id="mS-Zj38iRctALE42q6DI-43" value="J6" style="text;html=1;align=center;verticalAlign=middle;whiteSpace=wrap;rounded=0;" parent="1" vertex="1">
          <mxGeometry x="1135" y="100" width="30" height="30" as="geometry" />
        </mxCell>
        <mxCell id="mS-Zj38iRctALE42q6DI-44" value="CENTRAL PROCESSOR" style="text;html=1;align=center;verticalAlign=middle;whiteSpace=wrap;rounded=0;" parent="1" vertex="1">
          <mxGeometry x="1085" y="45" width="240" height="20" as="geometry" />
        </mxCell>
        <mxCell id="mS-Zj38iRctALE42q6DI-46" value="" style="group;rotation=-45;" parent="1" vertex="1" connectable="0">
          <mxGeometry x="1190" y="430" width="30" height="50" as="geometry" />
        </mxCell>
        <mxCell id="mS-Zj38iRctALE42q6DI-47" value="" style="ellipse;whiteSpace=wrap;html=1;aspect=fixed;rotation=-45;" parent="mS-Zj38iRctALE42q6DI-46" vertex="1">
          <mxGeometry x="24" y="34" width="10" height="10" as="geometry" />
        </mxCell>
        <mxCell id="mS-Zj38iRctALE42q6DI-48" value="" style="endArrow=none;dashed=1;html=1;dashPattern=1 3;strokeWidth=4;rounded=0;" parent="mS-Zj38iRctALE42q6DI-46" edge="1">
          <mxGeometry width="50" height="50" relative="1" as="geometry">
            <mxPoint x="15" y="46" as="sourcePoint" />
            <mxPoint x="-13" y="18" as="targetPoint" />
          </mxGeometry>
        </mxCell>
        <mxCell id="mS-Zj38iRctALE42q6DI-49" value="" style="endArrow=none;dashed=1;html=1;dashPattern=1 3;strokeWidth=4;rounded=0;" parent="mS-Zj38iRctALE42q6DI-46" edge="1">
          <mxGeometry width="50" height="50" relative="1" as="geometry">
            <mxPoint x="36" y="25" as="sourcePoint" />
            <mxPoint x="8" y="-3" as="targetPoint" />
          </mxGeometry>
        </mxCell>
        <mxCell id="mS-Zj38iRctALE42q6DI-50" value="" style="ellipse;whiteSpace=wrap;html=1;aspect=fixed;rotation=-45;" parent="mS-Zj38iRctALE42q6DI-46" vertex="1">
          <mxGeometry x="10" y="20" width="10" height="10" as="geometry" />
        </mxCell>
        <mxCell id="mS-Zj38iRctALE42q6DI-51" value="" style="ellipse;whiteSpace=wrap;html=1;aspect=fixed;rotation=-45;" parent="mS-Zj38iRctALE42q6DI-46" vertex="1">
          <mxGeometry x="-4" y="6" width="10" height="10" as="geometry" />
        </mxCell>
        <mxCell id="mS-Zj38iRctALE42q6DI-52" value="" style="triangle;whiteSpace=wrap;html=1;rotation=90;" parent="1" vertex="1">
          <mxGeometry x="1200" y="410" width="10" height="10" as="geometry" />
        </mxCell>
        <mxCell id="mS-Zj38iRctALE42q6DI-53" value="J3" style="text;html=1;align=center;verticalAlign=middle;whiteSpace=wrap;rounded=0;" parent="1" vertex="1">
          <mxGeometry x="1135" y="435" width="30" height="30" as="geometry" />
        </mxCell>
        <mxCell id="mS-Zj38iRctALE42q6DI-54" value="CORE MEMORY" style="text;html=1;align=center;verticalAlign=middle;whiteSpace=wrap;rounded=0;" parent="1" vertex="1">
          <mxGeometry x="1085" y="380" width="240" height="20" as="geometry" />
        </mxCell>
        <mxCell id="mS-Zj38iRctALE42q6DI-55" value="" style="ellipse;whiteSpace=wrap;html=1;aspect=fixed;fontSize=10;fillColor=none;" parent="1" vertex="1">
          <mxGeometry x="1170" y="530" width="70" height="70" as="geometry" />
        </mxCell>
        <mxCell id="mS-Zj38iRctALE42q6DI-56" value="" style="group;rotation=90;" parent="1" vertex="1" connectable="0">
          <mxGeometry x="1190" y="540" width="30" height="50" as="geometry" />
        </mxCell>
        <mxCell id="mS-Zj38iRctALE42q6DI-57" value="" style="ellipse;whiteSpace=wrap;html=1;aspect=fixed;rotation=90;" parent="mS-Zj38iRctALE42q6DI-56" vertex="1">
          <mxGeometry x="-10" y="20" width="10" height="10" as="geometry" />
        </mxCell>
        <mxCell id="mS-Zj38iRctALE42q6DI-58" value="" style="endArrow=none;dashed=1;html=1;dashPattern=1 3;strokeWidth=4;rounded=0;" parent="mS-Zj38iRctALE42q6DI-56" edge="1">
          <mxGeometry width="50" height="50" relative="1" as="geometry">
            <mxPoint y="10" as="sourcePoint" />
            <mxPoint x="40" y="10" as="targetPoint" />
          </mxGeometry>
        </mxCell>
        <mxCell id="mS-Zj38iRctALE42q6DI-59" value="" style="endArrow=none;dashed=1;html=1;dashPattern=1 3;strokeWidth=4;rounded=0;" parent="mS-Zj38iRctALE42q6DI-56" edge="1">
          <mxGeometry width="50" height="50" relative="1" as="geometry">
            <mxPoint y="40" as="sourcePoint" />
            <mxPoint x="40" y="40" as="targetPoint" />
          </mxGeometry>
        </mxCell>
        <mxCell id="mS-Zj38iRctALE42q6DI-60" value="" style="ellipse;whiteSpace=wrap;html=1;aspect=fixed;rotation=90;" parent="mS-Zj38iRctALE42q6DI-56" vertex="1">
          <mxGeometry x="10" y="20" width="10" height="10" as="geometry" />
        </mxCell>
        <mxCell id="mS-Zj38iRctALE42q6DI-61" value="" style="ellipse;whiteSpace=wrap;html=1;aspect=fixed;rotation=90;" parent="mS-Zj38iRctALE42q6DI-56" vertex="1">
          <mxGeometry x="30" y="20" width="10" height="10" as="geometry" />
        </mxCell>
        <mxCell id="mS-Zj38iRctALE42q6DI-62" value="" style="triangle;whiteSpace=wrap;html=1;rotation=90;" parent="1" vertex="1">
          <mxGeometry x="1200" y="520" width="10" height="10" as="geometry" />
        </mxCell>
        <mxCell id="mS-Zj38iRctALE42q6DI-63" value="J4" style="text;html=1;align=center;verticalAlign=middle;whiteSpace=wrap;rounded=0;" parent="1" vertex="1">
          <mxGeometry x="1135" y="550" width="30" height="30" as="geometry" />
        </mxCell>
        <mxCell id="mS-Zj38iRctALE42q6DI-64" value="" style="ellipse;whiteSpace=wrap;html=1;aspect=fixed;fontSize=10;fillColor=none;" parent="1" vertex="1">
          <mxGeometry x="1170" y="690" width="70" height="70" as="geometry" />
        </mxCell>
        <mxCell id="mS-Zj38iRctALE42q6DI-65" value="" style="group;rotation=-15;" parent="1" vertex="1" connectable="0">
          <mxGeometry x="1190" y="700" width="30" height="50" as="geometry" />
        </mxCell>
        <mxCell id="mS-Zj38iRctALE42q6DI-66" value="" style="ellipse;whiteSpace=wrap;html=1;aspect=fixed;rotation=-15;" parent="mS-Zj38iRctALE42q6DI-65" vertex="1">
          <mxGeometry x="15" y="39" width="10" height="10" as="geometry" />
        </mxCell>
        <mxCell id="mS-Zj38iRctALE42q6DI-67" value="" style="endArrow=none;dashed=1;html=1;dashPattern=1 3;strokeWidth=4;rounded=0;" parent="mS-Zj38iRctALE42q6DI-65" edge="1">
          <mxGeometry width="50" height="50" relative="1" as="geometry">
            <mxPoint x="5" y="43" as="sourcePoint" />
            <mxPoint x="-6" y="5" as="targetPoint" />
          </mxGeometry>
        </mxCell>
        <mxCell id="mS-Zj38iRctALE42q6DI-68" value="" style="endArrow=none;dashed=1;html=1;dashPattern=1 3;strokeWidth=4;rounded=0;" parent="mS-Zj38iRctALE42q6DI-65" edge="1">
          <mxGeometry width="50" height="50" relative="1" as="geometry">
            <mxPoint x="33" y="36" as="sourcePoint" />
            <mxPoint x="23" y="-3" as="targetPoint" />
          </mxGeometry>
        </mxCell>
        <mxCell id="mS-Zj38iRctALE42q6DI-69" value="" style="ellipse;whiteSpace=wrap;html=1;aspect=fixed;rotation=-15;" parent="mS-Zj38iRctALE42q6DI-65" vertex="1">
          <mxGeometry x="10" y="20" width="10" height="10" as="geometry" />
        </mxCell>
        <mxCell id="mS-Zj38iRctALE42q6DI-70" value="" style="ellipse;whiteSpace=wrap;html=1;aspect=fixed;rotation=-15;" parent="mS-Zj38iRctALE42q6DI-65" vertex="1">
          <mxGeometry x="5" y="1" width="10" height="10" as="geometry" />
        </mxCell>
        <mxCell id="mS-Zj38iRctALE42q6DI-71" value="" style="triangle;whiteSpace=wrap;html=1;rotation=90;" parent="1" vertex="1">
          <mxGeometry x="1200" y="680" width="10" height="10" as="geometry" />
        </mxCell>
        <mxCell id="mS-Zj38iRctALE42q6DI-72" value="I/O CONTROL" style="text;html=1;align=center;verticalAlign=middle;whiteSpace=wrap;rounded=0;" parent="1" vertex="1">
          <mxGeometry x="1085" y="650" width="240" height="20" as="geometry" />
        </mxCell>
        <mxCell id="mS-Zj38iRctALE42q6DI-73" value="J4" style="text;html=1;align=center;verticalAlign=middle;whiteSpace=wrap;rounded=0;" parent="1" vertex="1">
          <mxGeometry x="1135" y="710" width="30" height="30" as="geometry" />
        </mxCell>
        <mxCell id="mS-Zj38iRctALE42q6DI-74" value="" style="ellipse;whiteSpace=wrap;html=1;aspect=fixed;fontSize=10;fillColor=none;" parent="1" vertex="1">
          <mxGeometry x="1085" y="890" width="70" height="70" as="geometry" />
        </mxCell>
        <mxCell id="mS-Zj38iRctALE42q6DI-75" value="" style="group;rotation=-44;" parent="1" vertex="1" connectable="0">
          <mxGeometry x="1105" y="900" width="30" height="50" as="geometry" />
        </mxCell>
        <mxCell id="mS-Zj38iRctALE42q6DI-76" value="" style="ellipse;whiteSpace=wrap;html=1;aspect=fixed;rotation=-44;" parent="mS-Zj38iRctALE42q6DI-75" vertex="1">
          <mxGeometry x="24" y="34" width="10" height="10" as="geometry" />
        </mxCell>
        <mxCell id="mS-Zj38iRctALE42q6DI-77" value="" style="endArrow=none;dashed=1;html=1;dashPattern=1 3;strokeWidth=4;rounded=0;" parent="mS-Zj38iRctALE42q6DI-75" edge="1">
          <mxGeometry width="50" height="50" relative="1" as="geometry">
            <mxPoint x="15" y="46" as="sourcePoint" />
            <mxPoint x="-13" y="18" as="targetPoint" />
          </mxGeometry>
        </mxCell>
        <mxCell id="mS-Zj38iRctALE42q6DI-78" value="" style="endArrow=none;dashed=1;html=1;dashPattern=1 3;strokeWidth=4;rounded=0;" parent="mS-Zj38iRctALE42q6DI-75" edge="1">
          <mxGeometry width="50" height="50" relative="1" as="geometry">
            <mxPoint x="36" y="25" as="sourcePoint" />
            <mxPoint x="8" y="-3" as="targetPoint" />
          </mxGeometry>
        </mxCell>
        <mxCell id="mS-Zj38iRctALE42q6DI-79" value="" style="ellipse;whiteSpace=wrap;html=1;aspect=fixed;rotation=-44;" parent="mS-Zj38iRctALE42q6DI-75" vertex="1">
          <mxGeometry x="10" y="20" width="10" height="10" as="geometry" />
        </mxCell>
        <mxCell id="mS-Zj38iRctALE42q6DI-80" value="" style="ellipse;whiteSpace=wrap;html=1;aspect=fixed;rotation=-44;" parent="mS-Zj38iRctALE42q6DI-75" vertex="1">
          <mxGeometry x="-4" y="6" width="10" height="10" as="geometry" />
        </mxCell>
        <mxCell id="mS-Zj38iRctALE42q6DI-81" value="" style="triangle;whiteSpace=wrap;html=1;rotation=90;" parent="1" vertex="1">
          <mxGeometry x="1115" y="880" width="10" height="10" as="geometry" />
        </mxCell>
        <mxCell id="mS-Zj38iRctALE42q6DI-82" value="J2" style="text;html=1;align=center;verticalAlign=middle;whiteSpace=wrap;rounded=0;" parent="1" vertex="1">
          <mxGeometry x="1105" y="960" width="30" height="30" as="geometry" />
        </mxCell>
        <mxCell id="mS-Zj38iRctALE42q6DI-83" value="" style="ellipse;whiteSpace=wrap;html=1;aspect=fixed;fontSize=10;fillColor=none;" parent="1" vertex="1">
          <mxGeometry x="1170" y="850" width="70" height="70" as="geometry" />
        </mxCell>
        <mxCell id="mS-Zj38iRctALE42q6DI-84" value="" style="group;rotation=15;" parent="1" vertex="1" connectable="0">
          <mxGeometry x="1190" y="860" width="30" height="50" as="geometry" />
        </mxCell>
        <mxCell id="mS-Zj38iRctALE42q6DI-85" value="" style="ellipse;whiteSpace=wrap;html=1;aspect=fixed;rotation=15;" parent="mS-Zj38iRctALE42q6DI-84" vertex="1">
          <mxGeometry x="5" y="39" width="10" height="10" as="geometry" />
        </mxCell>
        <mxCell id="mS-Zj38iRctALE42q6DI-86" value="" style="endArrow=none;dashed=1;html=1;dashPattern=1 3;strokeWidth=4;rounded=0;" parent="mS-Zj38iRctALE42q6DI-84" edge="1">
          <mxGeometry width="50" height="50" relative="1" as="geometry">
            <mxPoint x="-4" y="35" as="sourcePoint" />
            <mxPoint x="7" y="-3" as="targetPoint" />
          </mxGeometry>
        </mxCell>
        <mxCell id="mS-Zj38iRctALE42q6DI-87" value="" style="endArrow=none;dashed=1;html=1;dashPattern=1 3;strokeWidth=4;rounded=0;" parent="mS-Zj38iRctALE42q6DI-84" edge="1">
          <mxGeometry width="50" height="50" relative="1" as="geometry">
            <mxPoint x="25" y="44" as="sourcePoint" />
            <mxPoint x="36" y="5" as="targetPoint" />
          </mxGeometry>
        </mxCell>
        <mxCell id="mS-Zj38iRctALE42q6DI-88" value="" style="ellipse;whiteSpace=wrap;html=1;aspect=fixed;rotation=15;" parent="mS-Zj38iRctALE42q6DI-84" vertex="1">
          <mxGeometry x="10" y="20" width="10" height="10" as="geometry" />
        </mxCell>
        <mxCell id="mS-Zj38iRctALE42q6DI-89" value="" style="ellipse;whiteSpace=wrap;html=1;aspect=fixed;rotation=15;" parent="mS-Zj38iRctALE42q6DI-84" vertex="1">
          <mxGeometry x="15" y="1" width="10" height="10" as="geometry" />
        </mxCell>
        <mxCell id="mS-Zj38iRctALE42q6DI-90" value="" style="triangle;whiteSpace=wrap;html=1;rotation=90;" parent="1" vertex="1">
          <mxGeometry x="1200" y="840" width="10" height="10" as="geometry" />
        </mxCell>
        <mxCell id="mS-Zj38iRctALE42q6DI-91" value="J3" style="text;html=1;align=center;verticalAlign=middle;whiteSpace=wrap;rounded=0;" parent="1" vertex="1">
          <mxGeometry x="1190" y="925" width="30" height="30" as="geometry" />
        </mxCell>
        <mxCell id="mS-Zj38iRctALE42q6DI-92" value="" style="ellipse;whiteSpace=wrap;html=1;aspect=fixed;fontSize=10;fillColor=none;" parent="1" vertex="1">
          <mxGeometry x="1255" y="890" width="70" height="70" as="geometry" />
        </mxCell>
        <mxCell id="mS-Zj38iRctALE42q6DI-93" value="" style="group;rotation=-90;" parent="1" vertex="1" connectable="0">
          <mxGeometry x="1275" y="900" width="30" height="50" as="geometry" />
        </mxCell>
        <mxCell id="mS-Zj38iRctALE42q6DI-94" value="" style="ellipse;whiteSpace=wrap;html=1;aspect=fixed;rotation=-90;" parent="mS-Zj38iRctALE42q6DI-93" vertex="1">
          <mxGeometry x="30" y="20" width="10" height="10" as="geometry" />
        </mxCell>
        <mxCell id="mS-Zj38iRctALE42q6DI-95" value="" style="endArrow=none;dashed=1;html=1;dashPattern=1 3;strokeWidth=4;rounded=0;" parent="mS-Zj38iRctALE42q6DI-93" edge="1">
          <mxGeometry width="50" height="50" relative="1" as="geometry">
            <mxPoint x="30" y="40" as="sourcePoint" />
            <mxPoint x="-10" y="40" as="targetPoint" />
          </mxGeometry>
        </mxCell>
        <mxCell id="mS-Zj38iRctALE42q6DI-96" value="" style="endArrow=none;dashed=1;html=1;dashPattern=1 3;strokeWidth=4;rounded=0;" parent="mS-Zj38iRctALE42q6DI-93" edge="1">
          <mxGeometry width="50" height="50" relative="1" as="geometry">
            <mxPoint x="30" y="10" as="sourcePoint" />
            <mxPoint x="-10" y="10" as="targetPoint" />
          </mxGeometry>
        </mxCell>
        <mxCell id="mS-Zj38iRctALE42q6DI-97" value="" style="ellipse;whiteSpace=wrap;html=1;aspect=fixed;rotation=-90;" parent="mS-Zj38iRctALE42q6DI-93" vertex="1">
          <mxGeometry x="10" y="20" width="10" height="10" as="geometry" />
        </mxCell>
        <mxCell id="mS-Zj38iRctALE42q6DI-98" value="" style="ellipse;whiteSpace=wrap;html=1;aspect=fixed;rotation=-90;" parent="mS-Zj38iRctALE42q6DI-93" vertex="1">
          <mxGeometry x="-10" y="20" width="10" height="10" as="geometry" />
        </mxCell>
        <mxCell id="mS-Zj38iRctALE42q6DI-99" value="" style="triangle;whiteSpace=wrap;html=1;rotation=90;" parent="1" vertex="1">
          <mxGeometry x="1285" y="880" width="10" height="10" as="geometry" />
        </mxCell>
        <mxCell id="mS-Zj38iRctALE42q6DI-100" value="J1" style="text;html=1;align=center;verticalAlign=middle;whiteSpace=wrap;rounded=0;" parent="1" vertex="1">
          <mxGeometry x="1275" y="960" width="30" height="30" as="geometry" />
        </mxCell>
        <mxCell id="mS-Zj38iRctALE42q6DI-101" value="LOGIC POWER SUPPLY" style="text;html=1;align=center;verticalAlign=middle;whiteSpace=wrap;rounded=0;" parent="1" vertex="1">
          <mxGeometry x="1085" y="810" width="240" height="20" as="geometry" />
        </mxCell>
        <mxCell id="mS-Zj38iRctALE42q6DI-103" value="" style="endArrow=classic;html=1;rounded=0;" parent="1" edge="1">
          <mxGeometry width="50" height="50" relative="1" as="geometry">
            <mxPoint x="1285" y="1000" as="sourcePoint" />
            <mxPoint x="1255" y="560" as="targetPoint" />
            <Array as="points">
              <mxPoint x="1285" y="1020" />
              <mxPoint x="1440" y="1020" />
              <mxPoint x="1440" y="560" />
            </Array>
          </mxGeometry>
        </mxCell>
        <mxCell id="mS-Zj38iRctALE42q6DI-104" value="" style="endArrow=classic;html=1;rounded=0;" parent="1" edge="1">
          <mxGeometry width="50" height="50" relative="1" as="geometry">
            <mxPoint x="1115" y="1000" as="sourcePoint" />
            <mxPoint x="1255" y="450" as="targetPoint" />
            <Array as="points">
              <mxPoint x="1115" y="1030" />
              <mxPoint x="1450" y="1030" />
              <mxPoint x="1450" y="450" />
            </Array>
          </mxGeometry>
        </mxCell>
        <mxCell id="mS-Zj38iRctALE42q6DI-105" value="" style="endArrow=classic;html=1;rounded=0;" parent="1" edge="1">
          <mxGeometry width="50" height="50" relative="1" as="geometry">
            <mxPoint x="1205" y="961.6666666666667" as="sourcePoint" />
            <mxPoint x="1345" y="300" as="targetPoint" />
            <Array as="points">
              <mxPoint x="1205" y="1040" />
              <mxPoint x="1460" y="1040" />
              <mxPoint x="1460" y="300" />
            </Array>
          </mxGeometry>
        </mxCell>
        <mxCell id="mS-Zj38iRctALE42q6DI-106" value="" style="endArrow=classic;html=1;rounded=0;" parent="1" edge="1">
          <mxGeometry width="50" height="50" relative="1" as="geometry">
            <mxPoint x="1065" y="310" as="sourcePoint" />
            <mxPoint x="1125" y="120" as="targetPoint" />
            <Array as="points">
              <mxPoint x="1035" y="310" />
              <mxPoint x="1035" y="120" />
            </Array>
          </mxGeometry>
        </mxCell>
        <mxCell id="mS-Zj38iRctALE42q6DI-107" value="" style="endArrow=classic;html=1;rounded=0;" parent="1" edge="1">
          <mxGeometry width="50" height="50" relative="1" as="geometry">
            <mxPoint x="1185" y="350" as="sourcePoint" />
            <mxPoint x="1125" y="720" as="targetPoint" />
            <Array as="points">
              <mxPoint x="1185" y="370" />
              <mxPoint x="1035" y="370" />
              <mxPoint x="1035" y="720" />
            </Array>
          </mxGeometry>
        </mxCell>
        <mxCell id="Z8_JvlIqFn8lhpoaYZfl-2" value="&lt;div&gt;0 0 1 0&lt;/div&gt;&lt;div&gt;&lt;br&gt;&lt;/div&gt;&lt;div&gt;&lt;br&gt;&lt;/div&gt;J1&lt;div&gt;&lt;br&gt;&lt;/div&gt;&lt;div&gt;&lt;br&gt;&lt;/div&gt;&lt;div&gt;0 0 1 0&lt;/div&gt;" style="rounded=1;whiteSpace=wrap;html=1;fontSize=10;" parent="1" vertex="1">
          <mxGeometry x="2130" y="910" width="50" height="100" as="geometry" />
        </mxCell>
        <mxCell id="Z8_JvlIqFn8lhpoaYZfl-3" value="&lt;div&gt;0 0 1 0&lt;/div&gt;&lt;div&gt;&lt;br&gt;&lt;/div&gt;&lt;div&gt;&lt;br&gt;&lt;/div&gt;J3&lt;div&gt;&lt;br&gt;&lt;/div&gt;&lt;div&gt;&lt;br&gt;&lt;/div&gt;&lt;div&gt;0 0 1 0&lt;/div&gt;" style="rounded=1;whiteSpace=wrap;html=1;fontSize=10;" parent="1" vertex="1">
          <mxGeometry x="2070" y="910" width="50" height="100" as="geometry" />
        </mxCell>
        <mxCell id="Z8_JvlIqFn8lhpoaYZfl-7" value="&lt;div&gt;1 1 1 0&lt;/div&gt;&lt;div&gt;&lt;br&gt;&lt;/div&gt;&lt;div&gt;&lt;br&gt;&lt;/div&gt;J2&lt;div&gt;&lt;br&gt;&lt;/div&gt;&lt;div&gt;&lt;br&gt;&lt;/div&gt;&lt;div&gt;1 1 1 0&lt;/div&gt;" style="rounded=1;whiteSpace=wrap;html=1;fontSize=10;" parent="1" vertex="1">
          <mxGeometry x="2100" y="730" width="50" height="100" as="geometry" />
        </mxCell>
        <mxCell id="Z8_JvlIqFn8lhpoaYZfl-8" value="&lt;div&gt;1 1 1 0&lt;/div&gt;&lt;div&gt;&lt;br&gt;&lt;/div&gt;&lt;div&gt;&lt;br&gt;&lt;/div&gt;J1&lt;div&gt;&lt;br&gt;&lt;/div&gt;&lt;div&gt;&lt;br&gt;&lt;/div&gt;&lt;div&gt;1 1 1 0&lt;/div&gt;" style="rounded=1;whiteSpace=wrap;html=1;fontSize=10;" parent="1" vertex="1">
          <mxGeometry x="2100" y="630" width="50" height="100" as="geometry" />
        </mxCell>
        <mxCell id="Z8_JvlIqFn8lhpoaYZfl-14" value="0 0 0 0&amp;nbsp;&lt;div&gt;&lt;br&gt;&lt;/div&gt;&lt;div&gt;&lt;br&gt;&lt;/div&gt;&lt;div&gt;J1&lt;/div&gt;&lt;div&gt;&lt;br&gt;&lt;/div&gt;&lt;div&gt;&lt;br&gt;&lt;/div&gt;&lt;div&gt;0 1 1 0&lt;/div&gt;" style="rounded=1;whiteSpace=wrap;html=1;fontSize=10;" parent="1" vertex="1">
          <mxGeometry x="2160" y="430" width="50" height="100" as="geometry" />
        </mxCell>
        <mxCell id="Z8_JvlIqFn8lhpoaYZfl-15" value="1 0 1 1&lt;div&gt;&lt;br&gt;&lt;/div&gt;&lt;div&gt;&lt;br&gt;&lt;/div&gt;&lt;div&gt;J2&lt;/div&gt;&lt;div&gt;&lt;br&gt;&lt;/div&gt;&lt;div&gt;&lt;br&gt;&lt;/div&gt;&lt;div&gt;1 0 1 1&lt;/div&gt;" style="rounded=1;whiteSpace=wrap;html=1;fontSize=10;" parent="1" vertex="1">
          <mxGeometry x="2100" y="430" width="50" height="100" as="geometry" />
        </mxCell>
        <mxCell id="Z8_JvlIqFn8lhpoaYZfl-16" value="1 0 0 1&lt;div&gt;&lt;br&gt;&lt;/div&gt;&lt;div&gt;&lt;br&gt;&lt;/div&gt;&lt;div&gt;J3&lt;/div&gt;&lt;div&gt;&lt;br&gt;&lt;/div&gt;&lt;div&gt;&lt;br&gt;&lt;/div&gt;&lt;div&gt;1 1 1 1&lt;/div&gt;" style="rounded=1;whiteSpace=wrap;html=1;fontSize=10;" parent="1" vertex="1">
          <mxGeometry x="2040" y="430" width="50" height="100" as="geometry" />
        </mxCell>
        <mxCell id="Z8_JvlIqFn8lhpoaYZfl-17" value="LOGIC POWER SUPPLY" style="text;html=1;align=center;verticalAlign=middle;whiteSpace=wrap;rounded=0;" parent="1" vertex="1">
          <mxGeometry x="2000" y="400" width="240" height="20" as="geometry" />
        </mxCell>
        <mxCell id="Z8_JvlIqFn8lhpoaYZfl-18" value="CENTRAL PROCESSOR" style="text;html=1;align=center;verticalAlign=middle;whiteSpace=wrap;rounded=0;" parent="1" vertex="1">
          <mxGeometry x="2005" y="50" width="240" height="20" as="geometry" />
        </mxCell>
        <mxCell id="Z8_JvlIqFn8lhpoaYZfl-19" value="CORE MEMORY" style="text;html=1;align=center;verticalAlign=middle;whiteSpace=wrap;rounded=0;" parent="1" vertex="1">
          <mxGeometry x="2000" y="600" width="240" height="20" as="geometry" />
        </mxCell>
        <mxCell id="Z8_JvlIqFn8lhpoaYZfl-20" value="I/O CONTROL" style="text;html=1;align=center;verticalAlign=middle;whiteSpace=wrap;rounded=0;" parent="1" vertex="1">
          <mxGeometry x="2005" y="880" width="240" height="20" as="geometry" />
        </mxCell>
        <mxCell id="Z8_JvlIqFn8lhpoaYZfl-27" value="0 1 1 0&lt;br&gt;&lt;div&gt;&lt;br&gt;&lt;/div&gt;&lt;div&gt;&lt;br&gt;&lt;/div&gt;&lt;div&gt;J5&lt;/div&gt;&lt;div&gt;&lt;br&gt;&lt;/div&gt;&lt;div&gt;&lt;br&gt;&lt;/div&gt;&lt;div&gt;0 0 0 0&lt;/div&gt;" style="rounded=1;whiteSpace=wrap;html=1;fontSize=10;rotation=-90;" parent="1" vertex="1">
          <mxGeometry x="2095" y="265" width="50" height="100" as="geometry" />
        </mxCell>
        <mxCell id="Z8_JvlIqFn8lhpoaYZfl-28" value="1 1 0 1&lt;br&gt;&lt;div&gt;&lt;br&gt;&lt;/div&gt;&lt;div&gt;&lt;br&gt;&lt;/div&gt;&lt;div&gt;J4&lt;/div&gt;&lt;div&gt;&lt;br&gt;&lt;/div&gt;&lt;div&gt;&lt;br&gt;&lt;/div&gt;&lt;div&gt;1 1 0 1&lt;/div&gt;" style="rounded=1;whiteSpace=wrap;html=1;fontSize=10;rotation=-90;" parent="1" vertex="1">
          <mxGeometry x="2095" y="215" width="50" height="100" as="geometry" />
        </mxCell>
        <mxCell id="Z8_JvlIqFn8lhpoaYZfl-29" value="1 1 1 1&lt;br&gt;&lt;div&gt;&lt;br&gt;&lt;/div&gt;&lt;div&gt;&lt;br&gt;&lt;/div&gt;&lt;div&gt;J3&lt;/div&gt;&lt;div&gt;&lt;br&gt;&lt;/div&gt;&lt;div&gt;&lt;br&gt;&lt;/div&gt;&lt;div&gt;1 0 0 1&lt;/div&gt;" style="rounded=1;whiteSpace=wrap;html=1;fontSize=10;rotation=-90;" parent="1" vertex="1">
          <mxGeometry x="2095" y="155" width="50" height="100" as="geometry" />
        </mxCell>
        <mxCell id="Z8_JvlIqFn8lhpoaYZfl-30" value="1 0 1 0&lt;br&gt;&lt;div&gt;&lt;br&gt;&lt;/div&gt;&lt;div&gt;&lt;br&gt;&lt;/div&gt;&lt;div&gt;J2&lt;/div&gt;&lt;div&gt;&lt;br&gt;&lt;/div&gt;&lt;div&gt;&lt;br&gt;&lt;/div&gt;&lt;div&gt;0 0 1 0&lt;/div&gt;" style="rounded=1;whiteSpace=wrap;html=1;fontSize=10;rotation=-90;" parent="1" vertex="1">
          <mxGeometry x="2095" y="105" width="50" height="100" as="geometry" />
        </mxCell>
        <mxCell id="Z8_JvlIqFn8lhpoaYZfl-31" value="0 1 0 0&lt;br&gt;&lt;div&gt;&lt;br&gt;&lt;/div&gt;&lt;div&gt;&lt;br&gt;&lt;/div&gt;&lt;div&gt;J1&lt;/div&gt;&lt;div&gt;&lt;br&gt;&lt;/div&gt;&lt;div&gt;&lt;br&gt;&lt;/div&gt;&lt;div&gt;0 1 0 0&lt;/div&gt;" style="rounded=1;whiteSpace=wrap;html=1;fontSize=10;rotation=-90;" parent="1" vertex="1">
          <mxGeometry x="2095" y="55" width="50" height="100" as="geometry" />
        </mxCell>
        <mxCell id="Z8_JvlIqFn8lhpoaYZfl-32" value="" style="endArrow=classic;html=1;rounded=0;" parent="1" edge="1">
          <mxGeometry width="50" height="50" relative="1" as="geometry">
            <mxPoint x="2180" y="320" as="sourcePoint" />
            <mxPoint x="2220" y="480" as="targetPoint" />
            <Array as="points">
              <mxPoint x="2240" y="320" />
              <mxPoint x="2240" y="480" />
            </Array>
          </mxGeometry>
        </mxCell>
        <mxCell id="Z8_JvlIqFn8lhpoaYZfl-33" value="" style="endArrow=classic;html=1;rounded=0;" parent="1" edge="1">
          <mxGeometry width="50" height="50" relative="1" as="geometry">
            <mxPoint x="2180" y="270" as="sourcePoint" />
            <mxPoint x="2120" y="540" as="targetPoint" />
            <Array as="points">
              <mxPoint x="2250" y="270" />
              <mxPoint x="2250" y="560" />
              <mxPoint x="2120" y="560" />
            </Array>
          </mxGeometry>
        </mxCell>
        <mxCell id="Z8_JvlIqFn8lhpoaYZfl-34" value="" style="endArrow=classic;html=1;rounded=0;" parent="1" edge="1">
          <mxGeometry width="50" height="50" relative="1" as="geometry">
            <mxPoint x="2180" y="210" as="sourcePoint" />
            <mxPoint x="2060" y="540" as="targetPoint" />
            <Array as="points">
              <mxPoint x="2260" y="210" />
              <mxPoint x="2260" y="570" />
              <mxPoint x="2060" y="570" />
            </Array>
          </mxGeometry>
        </mxCell>
        <mxCell id="Z8_JvlIqFn8lhpoaYZfl-35" value="" style="endArrow=classic;html=1;rounded=0;" parent="1" edge="1">
          <mxGeometry width="50" height="50" relative="1" as="geometry">
            <mxPoint x="2180" y="160" as="sourcePoint" />
            <mxPoint x="2160" y="680" as="targetPoint" />
            <Array as="points">
              <mxPoint x="2280" y="160" />
              <mxPoint x="2280" y="680" />
            </Array>
          </mxGeometry>
        </mxCell>
        <mxCell id="Z8_JvlIqFn8lhpoaYZfl-36" value="" style="endArrow=classic;html=1;rounded=0;" parent="1" edge="1">
          <mxGeometry width="50" height="50" relative="1" as="geometry">
            <mxPoint x="2180" y="110" as="sourcePoint" />
            <mxPoint x="2190" y="960" as="targetPoint" />
            <Array as="points">
              <mxPoint x="2290" y="110" />
              <mxPoint x="2290" y="960" />
            </Array>
          </mxGeometry>
        </mxCell>
        <mxCell id="Z8_JvlIqFn8lhpoaYZfl-37" value="" style="endArrow=classic;html=1;rounded=0;" parent="1" edge="1">
          <mxGeometry width="50" height="50" relative="1" as="geometry">
            <mxPoint x="2090" y="780" as="sourcePoint" />
            <mxPoint x="2040" y="780" as="targetPoint" />
          </mxGeometry>
        </mxCell>
        <mxCell id="Z8_JvlIqFn8lhpoaYZfl-38" value="&lt;div&gt;Terminator&lt;/div&gt;&lt;div&gt;or&lt;/div&gt;&lt;div&gt;Next Core&lt;/div&gt;" style="rounded=1;whiteSpace=wrap;html=1;fontSize=10;" parent="1" vertex="1">
          <mxGeometry x="1960" y="760" width="70" height="40" as="geometry" />
        </mxCell>
        <mxCell id="Z8_JvlIqFn8lhpoaYZfl-39" value="" style="endArrow=classic;html=1;rounded=0;" parent="1" edge="1">
          <mxGeometry width="50" height="50" relative="1" as="geometry">
            <mxPoint x="2060" y="960" as="sourcePoint" />
            <mxPoint x="2010" y="960" as="targetPoint" />
          </mxGeometry>
        </mxCell>
        <mxCell id="Z8_JvlIqFn8lhpoaYZfl-40" value="&lt;div&gt;Next I/O Box?&lt;/div&gt;" style="rounded=1;whiteSpace=wrap;html=1;fontSize=10;" parent="1" vertex="1">
          <mxGeometry x="1930" y="940" width="70" height="40" as="geometry" />
        </mxCell>
      </root>
    </mxGraphModel>
  </diagram>
</mxfile>
